<svg width="0" height="0" class="hidden">
    <symbol aria-hidden="true" data-prefix="fas" data-icon="car-battery" xmlns="http://www.w3.org/2000/svg" viewBox="0 0 512 512" id="car-battery">
	<path fill="currentColor" d="M480 128h-32V80c0-8.84-7.16-16-16-16h-96c-8.84 0-16 7.16-16 16v48H192V80c0-8.84-7.16-16-16-16H80c-8.84 0-16 7.16-16 16v48H32c-17.67 0-32 14.33-32 32v256c0 17.67 14.33 32 32 32h448c17.67 0 32-14.33 32-32V160c0-17.67-14.33-32-32-32zM192 264c0 4.42-3.58 8-8 8H72c-4.42 0-8-3.58-8-8v-16c0-4.42 3.58-8 8-8h112c4.42 0 8 3.58 8 8v16zm256 0c0 4.42-3.58 8-8 8h-40v40c0 4.42-3.58 8-8 8h-16c-4.42 0-8-3.58-8-8v-40h-40c-4.42 0-8-3.58-8-8v-16c0-4.42 3.58-8 8-8h40v-40c0-4.42 3.58-8 8-8h16c4.42 0 8 3.58 8 8v40h40c4.42 0 8 3.58 8 8v16z"></path>
    </symbol>
    <symbol aria-hidden="true" data-prefix="fas" data-icon="chart-area" xmlns="http://www.w3.org/2000/svg" viewBox="0 0 512 512" id="chart-area">
	<path fill="currentColor" d="M500 384c6.6 0 12 5.4 12 12v40c0 6.6-5.4 12-12 12H12c-6.6 0-12-5.4-12-12V76c0-6.6 5.4-12 12-12h40c6.6 0 12 5.4 12 12v308h436zM372.7 159.5L288 216l-85.3-113.7c-5.1-6.8-15.5-6.3-19.9 1L96 248v104h384l-89.9-187.8c-3.2-6.5-11.4-8.7-17.4-4.7z"></path>
    </symbol>
    <symbol aria-hidden="true" data-prefix="fas" data-icon="user" xmlns="http://www.w3.org/2000/svg" viewBox="0 0 448 512" id="user">
	<path fill="currentColor" d="M224 256c70.7 0 128-57.3 128-128S294.7 0 224 0 96 57.3 96 128s57.3 128 128 128zm89.6 32h-16.7c-22.2 10.2-46.9 16-72.9 16s-50.6-5.8-72.9-16h-16.7C60.2 288 0 348.2 0 422.4V464c0 26.5 21.5 48 48 48h352c26.5 0 48-21.5 48-48v-41.6c0-74.2-60.2-134.4-134.4-134.4z"></path>
    </symbol>
    <symbol aria-hidden="true" data-prefix="fas" data-icon="tachometer-alt" xmlns="http://www.w3.org/2000/svg" viewBox="0 0 576 512" id="tachometer">
	<path fill="currentColor" d="M288 32C128.94 32 0 160.94 0 320c0 52.8 14.25 102.26 39.06 144.8 5.61 9.62 16.3 15.2 27.44 15.2h443c11.14 0 21.83-5.58 27.44-15.2C561.75 422.26 576 372.8 576 320c0-159.06-128.94-288-288-288zm0 64c14.71 0 26.58 10.13 30.32 23.65-1.11 2.26-2.64 4.23-3.45 6.67l-9.22 27.67c-5.13 3.49-10.97 6.01-17.64 6.01-17.67 0-32-14.33-32-32S270.33 96 288 96zM96 384c-17.67 0-32-14.33-32-32s14.33-32 32-32 32 14.33 32 32-14.33 32-32 32zm48-160c-17.67 0-32-14.33-32-32s14.33-32 32-32 32 14.33 32 32-14.33 32-32 32zm246.77-72.41l-61.33 184C343.13 347.33 352 364.54 352 384c0 11.72-3.38 22.55-8.88 32H232.88c-5.5-9.45-8.88-20.28-8.88-32 0-33.94 26.5-61.43 59.9-63.59l61.34-184.01c4.17-12.56 17.73-19.45 30.36-15.17 12.57 4.19 19.35 17.79 15.17 30.36zm14.66 57.2l15.52-46.55c3.47-1.29 7.13-2.23 11.05-2.23 17.67 0 32 14.33 32 32s-14.33 32-32 32c-11.38-.01-20.89-6.28-26.57-15.22zM480 384c-17.67 0-32-14.33-32-32s14.33-32 32-32 32 14.33 32 32-14.33 32-32 32z"></path>
    </symbol>
    <symbol aria-hidden="true" data-prefix="fas" data-icon="bell" xmlns="http://www.w3.org/2000/svg" viewBox="0 0 448 512" id="bell">
	<path fill="currentColor" d="M224 512c35.32 0 63.97-28.65 63.97-64H160.03c0 35.35 28.65 64 63.97 64zm215.39-149.71c-19.32-20.76-55.47-51.99-55.47-154.29 0-77.7-54.48-139.9-127.94-155.16V32c0-17.67-14.32-32-31.98-32s-31.98 14.33-31.98 32v20.84C118.56 68.1 64.08 130.3 64.08 208c0 102.3-36.15 133.53-55.47 154.29-6 6.45-8.66 14.16-8.61 21.71.11 16.4 12.98 32 32.1 32h383.8c19.12 0 32-15.6 32.1-32 .05-7.55-2.61-15.27-8.61-21.71z"></path>
    </symbol>
    <symbol aria-hidden="true" data-prefix="fas" data-icon="bars" xmlns="http://www.w3.org/2000/svg" viewBox="0 0 448 512" id="bars">
	<path fill="currentColor" d="M16 132h416c8.837 0 16-7.163 16-16V76c0-8.837-7.163-16-16-16H16C7.163 60 0 67.163 0 76v40c0 8.837 7.163 16 16 16zm0 160h416c8.837 0 16-7.163 16-16v-40c0-8.837-7.163-16-16-16H16c-8.837 0-16 7.163-16 16v40c0 8.837 7.163 16 16 16zm0 160h416c8.837 0 16-7.163 16-16v-40c0-8.837-7.163-16-16-16H16c-8.837 0-16 7.163-16 16v40c0 8.837 7.163 16 16 16z"></path>
    </symbol>
    <symbol aria-hidden="true" data-prefix="fas" data-icon="times-circle" xmlns="http://www.w3.org/2000/svg" viewBox="0 0 512 512" id="close">
	<path fill="currentColor" d="M256 8C119 8 8 119 8 256s111 248 248 248 248-111 248-248S393 8 256 8zm121.6 313.1c4.7 4.7 4.7 12.3 0 17L338 377.6c-4.7 4.7-12.3 4.7-17 0L256 312l-65.1 65.6c-4.7 4.7-12.3 4.7-17 0L134.4 338c-4.7-4.7-4.7-12.3 0-17l65.6-65-65.6-65.1c-4.7-4.7-4.7-12.3 0-17l39.6-39.6c4.7-4.7 12.3-4.7 17 0l65 65.7 65.1-65.6c4.7-4.7 12.3-4.7 17 0l39.6 39.6c4.7 4.7 4.7 12.3 0 17L312 256l65.6 65.1z"></path>
    </symbol>
</svg>